<?xml version="1.0" encoding="UTF-8" standalone="no"?>
<!DOCTYPE svg PUBLIC "-//W3C//DTD SVG 1.1//EN"
 "http://www.w3.org/Graphics/SVG/1.1/DTD/svg11.dtd">
<!-- Generated by graphviz version 12.2.1 (20241206.2353)
 -->
<!-- Title: G Pages: 1 -->
<svg width="651pt" height="256pt"
 viewBox="0.00 0.00 650.95 255.95" xmlns="http://www.w3.org/2000/svg" xmlns:xlink="http://www.w3.org/1999/xlink">
<g id="graph0" class="graph" transform="scale(1 1) rotate(0) translate(21.6 234.35)">
<title>G</title>
<polygon fill="#111111" stroke="none" points="-21.6,21.6 -21.6,-234.35 629.35,-234.35 629.35,21.6 -21.6,21.6"/>
<!-- App.jsx -->
<g id="node1" class="node">
<title>App.jsx</title>
<path fill="none" stroke="#c6c5fe" d="M160.58,-128.75C160.58,-128.75 116.17,-128.75 116.17,-128.75 112.21,-128.75 108.25,-124.79 108.25,-120.83 108.25,-120.83 108.25,-112.92 108.25,-112.92 108.25,-108.96 112.21,-105 116.17,-105 116.17,-105 160.58,-105 160.58,-105 164.54,-105 168.5,-108.96 168.5,-112.92 168.5,-112.92 168.5,-120.83 168.5,-120.83 168.5,-124.79 164.54,-128.75 160.58,-128.75"/>
<text text-anchor="middle" x="138.38" y="-111.45" font-family="Arial" font-size="14.00" fill="#c6c5fe">App.jsx</text>
</g>
<!-- FlyHQ.jsx -->
<g id="node2" class="node">
<title>FlyHQ.jsx</title>
<path fill="none" stroke="#cfffac" d="M325.46,-212.75C325.46,-212.75 266.04,-212.75 266.04,-212.75 262.08,-212.75 258.12,-208.79 258.12,-204.83 258.12,-204.83 258.12,-196.92 258.12,-196.92 258.12,-192.96 262.08,-189 266.04,-189 266.04,-189 325.46,-189 325.46,-189 329.42,-189 333.38,-192.96 333.38,-196.92 333.38,-196.92 333.38,-204.83 333.38,-204.83 333.38,-208.79 329.42,-212.75 325.46,-212.75"/>
<text text-anchor="middle" x="295.75" y="-195.45" font-family="Arial" font-size="14.00" fill="#cfffac">FlyHQ.jsx</text>
</g>
<!-- App.jsx&#45;&gt;FlyHQ.jsx -->
<g id="edge1" class="edge">
<title>App.jsx&#45;&gt;FlyHQ.jsx</title>
<path fill="none" stroke="#757575" d="M149.66,-129C162.46,-143.32 185.69,-166.81 210.5,-179.88 221.63,-185.74 234.46,-190.01 246.69,-193.1"/>
<polygon fill="#757575" stroke="#757575" points="245.69,-196.46 256.22,-195.29 247.26,-189.64 245.69,-196.46"/>
</g>
<!-- FlyHQTools.jsx -->
<g id="node3" class="node">
<title>FlyHQTools.jsx</title>
<path fill="none" stroke="#cfffac" d="M341.21,-170.75C341.21,-170.75 250.29,-170.75 250.29,-170.75 246.33,-170.75 242.38,-166.79 242.38,-162.83 242.38,-162.83 242.38,-154.92 242.38,-154.92 242.38,-150.96 246.33,-147 250.29,-147 250.29,-147 341.21,-147 341.21,-147 345.17,-147 349.12,-150.96 349.12,-154.92 349.12,-154.92 349.12,-162.83 349.12,-162.83 349.12,-166.79 345.17,-170.75 341.21,-170.75"/>
<text text-anchor="middle" x="295.75" y="-153.45" font-family="Arial" font-size="14.00" fill="#cfffac">FlyHQTools.jsx</text>
</g>
<!-- App.jsx&#45;&gt;FlyHQTools.jsx -->
<g id="edge2" class="edge">
<title>App.jsx&#45;&gt;FlyHQTools.jsx</title>
<path fill="none" stroke="#757575" d="M168.71,-125.84C181.51,-129.68 196.71,-134.12 210.5,-137.88 217.73,-139.84 225.33,-141.84 232.89,-143.78"/>
<polygon fill="#757575" stroke="#757575" points="231.85,-147.12 242.4,-146.19 233.57,-140.34 231.85,-147.12"/>
</g>
<!-- LandingPage.jsx -->
<g id="node4" class="node">
<title>LandingPage.jsx</title>
<path fill="none" stroke="#cfffac" d="M345.71,-128.75C345.71,-128.75 245.79,-128.75 245.79,-128.75 241.83,-128.75 237.88,-124.79 237.88,-120.83 237.88,-120.83 237.88,-112.92 237.88,-112.92 237.88,-108.96 241.83,-105 245.79,-105 245.79,-105 345.71,-105 345.71,-105 349.67,-105 353.62,-108.96 353.62,-112.92 353.62,-112.92 353.62,-120.83 353.62,-120.83 353.62,-124.79 349.67,-128.75 345.71,-128.75"/>
<text text-anchor="middle" x="295.75" y="-111.45" font-family="Arial" font-size="14.00" fill="#cfffac">LandingPage.jsx</text>
</g>
<!-- App.jsx&#45;&gt;LandingPage.jsx -->
<g id="edge3" class="edge">
<title>App.jsx&#45;&gt;LandingPage.jsx</title>
<path fill="none" stroke="#757575" d="M168.97,-116.88C185.23,-116.88 206.14,-116.88 226.22,-116.88"/>
<polygon fill="#757575" stroke="#757575" points="226.07,-120.38 236.07,-116.88 226.07,-113.38 226.07,-120.38"/>
</g>
<!-- pages/JobPlanner.jsx -->
<g id="node5" class="node">
<title>pages/JobPlanner.jsx</title>
<path fill="none" stroke="#cfffac" d="M359.96,-86.75C359.96,-86.75 231.54,-86.75 231.54,-86.75 227.58,-86.75 223.62,-82.79 223.62,-78.83 223.62,-78.83 223.62,-70.92 223.62,-70.92 223.62,-66.96 227.58,-63 231.54,-63 231.54,-63 359.96,-63 359.96,-63 363.92,-63 367.88,-66.96 367.88,-70.92 367.88,-70.92 367.88,-78.83 367.88,-78.83 367.88,-82.79 363.92,-86.75 359.96,-86.75"/>
<text text-anchor="middle" x="295.75" y="-69.45" font-family="Arial" font-size="14.00" fill="#cfffac">pages/JobPlanner.jsx</text>
</g>
<!-- App.jsx&#45;&gt;pages/JobPlanner.jsx -->
<g id="edge4" class="edge">
<title>App.jsx&#45;&gt;pages/JobPlanner.jsx</title>
<path fill="none" stroke="#757575" d="M168.71,-107.91C181.51,-104.07 196.71,-99.63 210.5,-95.88 217.73,-93.91 225.33,-91.91 232.89,-89.97"/>
<polygon fill="#757575" stroke="#757575" points="233.57,-93.41 242.4,-87.56 231.85,-86.63 233.57,-93.41"/>
</g>
<!-- pages/ModuleSelector.jsx -->
<g id="node6" class="node">
<title>pages/ModuleSelector.jsx</title>
<path fill="none" stroke="#c6c5fe" d="M373.08,-44.75C373.08,-44.75 218.42,-44.75 218.42,-44.75 214.46,-44.75 210.5,-40.79 210.5,-36.83 210.5,-36.83 210.5,-28.92 210.5,-28.92 210.5,-24.96 214.46,-21 218.42,-21 218.42,-21 373.08,-21 373.08,-21 377.04,-21 381,-24.96 381,-28.92 381,-28.92 381,-36.83 381,-36.83 381,-40.79 377.04,-44.75 373.08,-44.75"/>
<text text-anchor="middle" x="295.75" y="-27.45" font-family="Arial" font-size="14.00" fill="#c6c5fe">pages/ModuleSelector.jsx</text>
</g>
<!-- App.jsx&#45;&gt;pages/ModuleSelector.jsx -->
<g id="edge5" class="edge">
<title>App.jsx&#45;&gt;pages/ModuleSelector.jsx</title>
<path fill="none" stroke="#757575" d="M162.41,-104.57C166.6,-101.93 170.81,-98.99 174.5,-95.88 193.3,-80.03 189.58,-66.79 210.5,-53.88 212.91,-52.38 215.43,-51 218.01,-49.71"/>
<polygon fill="#757575" stroke="#757575" points="219.14,-53.04 226.9,-45.83 216.33,-46.63 219.14,-53.04"/>
</g>
<!-- components/Leaderboard.jsx -->
<g id="node7" class="node">
<title>components/Leaderboard.jsx</title>
<path fill="none" stroke="#cfffac" d="M599.83,-65.75C599.83,-65.75 424.92,-65.75 424.92,-65.75 420.96,-65.75 417,-61.79 417,-57.83 417,-57.83 417,-49.92 417,-49.92 417,-45.96 420.96,-42 424.92,-42 424.92,-42 599.83,-42 599.83,-42 603.79,-42 607.75,-45.96 607.75,-49.92 607.75,-49.92 607.75,-57.83 607.75,-57.83 607.75,-61.79 603.79,-65.75 599.83,-65.75"/>
<text text-anchor="middle" x="512.38" y="-48.45" font-family="Arial" font-size="14.00" fill="#cfffac">components/Leaderboard.jsx</text>
</g>
<!-- pages/ModuleSelector.jsx&#45;&gt;components/Leaderboard.jsx -->
<g id="edge8" class="edge">
<title>pages/ModuleSelector.jsx&#45;&gt;components/Leaderboard.jsx</title>
<path fill="none" stroke="#757575" d="M381.27,-41.14C389.16,-41.92 397.23,-42.71 405.28,-43.49"/>
<polygon fill="#757575" stroke="#757575" points="404.85,-46.97 415.14,-44.46 405.53,-40 404.85,-46.97"/>
</g>
<!-- pages/TrainingRoom.jsx -->
<g id="node10" class="node">
<title>pages/TrainingRoom.jsx</title>
<path fill="none" stroke="#cfffac" d="M585.58,-23.75C585.58,-23.75 439.17,-23.75 439.17,-23.75 435.21,-23.75 431.25,-19.79 431.25,-15.83 431.25,-15.83 431.25,-7.92 431.25,-7.92 431.25,-3.96 435.21,0 439.17,0 439.17,0 585.58,0 585.58,0 589.54,0 593.5,-3.96 593.5,-7.92 593.5,-7.92 593.5,-15.83 593.5,-15.83 593.5,-19.79 589.54,-23.75 585.58,-23.75"/>
<text text-anchor="middle" x="512.38" y="-6.45" font-family="Arial" font-size="14.00" fill="#cfffac">pages/TrainingRoom.jsx</text>
</g>
<!-- pages/ModuleSelector.jsx&#45;&gt;pages/TrainingRoom.jsx -->
<g id="edge9" class="edge">
<title>pages/ModuleSelector.jsx&#45;&gt;pages/TrainingRoom.jsx</title>
<path fill="none" stroke="#757575" d="M381.27,-24.61C393.88,-23.37 406.93,-22.09 419.68,-20.85"/>
<polygon fill="#757575" stroke="#757575" points="419.67,-24.36 429.28,-19.91 418.99,-17.4 419.67,-24.36"/>
</g>
<!-- index.css -->
<g id="node8" class="node">
<title>index.css</title>
<path fill="none" stroke="#cfffac" d="M166.58,-86.75C166.58,-86.75 110.17,-86.75 110.17,-86.75 106.21,-86.75 102.25,-82.79 102.25,-78.83 102.25,-78.83 102.25,-70.92 102.25,-70.92 102.25,-66.96 106.21,-63 110.17,-63 110.17,-63 166.58,-63 166.58,-63 170.54,-63 174.5,-66.96 174.5,-70.92 174.5,-70.92 174.5,-78.83 174.5,-78.83 174.5,-82.79 170.54,-86.75 166.58,-86.75"/>
<text text-anchor="middle" x="138.38" y="-69.45" font-family="Arial" font-size="14.00" fill="#cfffac">index.css</text>
</g>
<!-- index.js -->
<g id="node9" class="node">
<title>index.js</title>
<path fill="none" stroke="#c6c5fe" d="M56.08,-107.75C56.08,-107.75 10.17,-107.75 10.17,-107.75 6.21,-107.75 2.25,-103.79 2.25,-99.83 2.25,-99.83 2.25,-91.92 2.25,-91.92 2.25,-87.96 6.21,-84 10.17,-84 10.17,-84 56.08,-84 56.08,-84 60.04,-84 64,-87.96 64,-91.92 64,-91.92 64,-99.83 64,-99.83 64,-103.79 60.04,-107.75 56.08,-107.75"/>
<text text-anchor="middle" x="33.12" y="-90.45" font-family="Arial" font-size="14.00" fill="#c6c5fe">index.js</text>
</g>
<!-- index.js&#45;&gt;App.jsx -->
<g id="edge6" class="edge">
<title>index.js&#45;&gt;App.jsx</title>
<path fill="none" stroke="#757575" d="M64.27,-102.01C74.52,-104.09 86.14,-106.45 97.05,-108.67"/>
<polygon fill="#757575" stroke="#757575" points="96.11,-112.05 106.6,-110.62 97.5,-105.19 96.11,-112.05"/>
</g>
<!-- index.js&#45;&gt;index.css -->
<g id="edge7" class="edge">
<title>index.js&#45;&gt;index.css</title>
<path fill="none" stroke="#757575" d="M64.27,-89.74C72.55,-88.06 81.74,-86.19 90.72,-84.36"/>
<polygon fill="#757575" stroke="#757575" points="91.32,-87.81 100.43,-82.39 89.93,-80.95 91.32,-87.81"/>
</g>
<!-- seed.js -->
<g id="node11" class="node">
<title>seed.js</title>
<path fill="none" stroke="#cfffac" d="M54.58,-149.75C54.58,-149.75 11.67,-149.75 11.67,-149.75 7.71,-149.75 3.75,-145.79 3.75,-141.83 3.75,-141.83 3.75,-133.92 3.75,-133.92 3.75,-129.96 7.71,-126 11.67,-126 11.67,-126 54.58,-126 54.58,-126 58.54,-126 62.5,-129.96 62.5,-133.92 62.5,-133.92 62.5,-141.83 62.5,-141.83 62.5,-145.79 58.54,-149.75 54.58,-149.75"/>
<text text-anchor="middle" x="33.12" y="-132.45" font-family="Arial" font-size="14.00" fill="#cfffac">seed.js</text>
</g>
<!-- server.js -->
<g id="node12" class="node">
<title>server.js</title>
<path fill="none" stroke="#cfffac" d="M58.33,-191.75C58.33,-191.75 7.92,-191.75 7.92,-191.75 3.96,-191.75 0,-187.79 0,-183.83 0,-183.83 0,-175.92 0,-175.92 0,-171.96 3.96,-168 7.92,-168 7.92,-168 58.33,-168 58.33,-168 62.29,-168 66.25,-171.96 66.25,-175.92 66.25,-175.92 66.25,-183.83 66.25,-183.83 66.25,-187.79 62.29,-191.75 58.33,-191.75"/>
<text text-anchor="middle" x="33.12" y="-174.45" font-family="Arial" font-size="14.00" fill="#cfffac">server.js</text>
</g>
</g>
</svg>
